<?xml version="1.0" standalone="no"?>
<!DOCTYPE svg PUBLIC "-//W3C//DTD SVG 20010904//EN"
 "http://www.w3.org/TR/2001/REC-SVG-20010904/DTD/svg10.dtd">
<svg version="1.0" xmlns="http://www.w3.org/2000/svg"
 width="332.000000pt" height="332.000000pt" viewBox="0 0 332.000000 332.000000"
 preserveAspectRatio="xMidYMid meet">

<g transform="translate(0.000000,332.000000) scale(0.100000,-0.100000)"
fill="#000000" stroke="none">
<path d="M1556 3194 c-14 -13 -16 -47 -16 -218 0 -144 3 -205 12 -214 17 -17
659 -17 676 0 7 7 12 43 12 90 l0 78 130 0 130 0 0 -78 c0 -47 5 -83 12 -90 8
-8 56 -12 150 -12 l139 0 -3 -132 -3 -133 -142 -3 c-164 -3 -151 6 -155 -112
l-3 -65 -127 -3 -128 -3 0 79 c0 47 -5 83 -12 90 -17 17 -659 17 -676 0 -7 -7
-12 -43 -12 -90 l0 -78 -200 0 -200 0 0 319 c0 319 0 320 -22 335 -19 14 -79
16 -450 16 -415 0 -429 -1 -448 -20 -20 -20 -20 -33 -20 -1290 0 -1257 0
-1270 20 -1290 19 -19 33 -20 448 -20 371 0 431 2 450 16 22 15 22 16 22 335
l0 319 200 0 200 0 0 -78 c0 -47 5 -83 12 -90 17 -17 659 -17 676 0 7 7 12 43
12 90 l0 79 128 -3 127 -3 3 -65 c4 -118 -9 -109 155 -112 l142 -3 3 -223 2
-222 -35 0 -35 0 0 78 c0 47 -5 83 -12 90 -17 17 -659 17 -676 0 -9 -9 -12
-70 -12 -214 0 -171 2 -205 16 -218 13 -14 58 -16 334 -16 276 0 321 2 334 16
12 11 16 35 16 89 l0 73 70 4 c38 2 75 9 82 16 10 10 14 80 16 272 l3 260 139
0 c127 0 140 2 150 19 6 12 10 98 10 210 0 178 -1 192 -20 211 -19 19 -33 20
-332 20 -179 0 -319 -4 -328 -10 -11 -6 -16 -33 -20 -92 l-5 -83 -127 -3 -128
-3 0 79 c0 119 23 112 -352 112 -372 0 -348 8 -348 -113 l0 -77 -200 0 -200 0
2 548 3 547 198 3 197 2 0 -78 c0 -119 -22 -112 346 -112 374 0 354 -6 354
111 l0 80 128 -3 127 -3 5 -83 c4 -59 9 -86 20 -92 9 -6 149 -10 328 -10 299
0 313 1 332 20 19 19 20 33 20 211 0 112 -4 198 -10 210 -10 17 -23 19 -150
19 l-140 0 0 135 0 135 140 0 c127 0 140 2 150 19 6 12 10 98 10 210 0 178 -1
192 -20 211 -19 19 -33 20 -331 20 -195 0 -318 -4 -330 -10 -16 -9 -19 -22
-19 -90 l0 -80 -130 0 -130 0 0 73 c0 113 21 107 -353 107 -274 0 -318 -2
-331 -16z m584 -219 l0 -135 -250 0 -250 0 0 135 0 135 250 0 250 0 0 -135z
m960 0 l0 -135 -252 3 -253 2 -3 133 -3 132 256 0 255 0 0 -135z m-2060 -310
l0 -205 -370 0 -370 0 0 205 0 205 370 0 370 0 0 -205z m1100 -410 l0 -135
-250 0 -250 0 0 135 0 135 250 0 250 0 0 -135z m960 0 l0 -135 -255 0 -255 0
0 135 0 135 255 0 255 0 0 -135z m-2060 -90 l0 -205 -370 0 -370 0 0 205 0
205 370 0 370 0 0 -205z m0 -505 l0 -200 -370 0 -370 0 0 200 0 200 370 0 370
0 0 -200z m0 -505 l0 -205 -370 0 -370 0 0 205 0 205 370 0 370 0 0 -205z
m1100 -90 l0 -135 -250 0 -250 0 0 135 0 135 250 0 250 0 0 -135z m960 0 l0
-135 -255 0 -255 0 0 135 0 135 255 0 255 0 0 -135z m-2060 -410 l0 -205 -370
0 -370 0 0 205 0 205 370 0 370 0 0 -205z m1590 -310 l0 -135 -255 0 -255 0 0
128 c0 71 3 132 7 135 3 4 118 7 255 7 l248 0 0 -135z"/>
</g>
</svg>
